# xmcd CD database file
#
# Track frame offsets:
#	150
#	23971
#	60867
#	80368
#	100116
#	117687
#	132795
#	147077
#	163092
#	182720
#	197595
#	212329
#	230247
#	244487
#	259158
#	272973
#	288469
#	309392
#
# Disc length: 4407 seconds
#
# Revision: 0
# Processed by: cddbd v1.5.1PL0 Copyright (c) Steve Scherf et al.
# Submitted via: freeDB plugin v1.0
#
DISCID=09113512
DTITLE=アーティスト情報なし - アルバム情報なし (2005/04/27 21:24:18)
DYEAR=1900
DGENRE=Rock
TTITLE0=トラック 1
TTITLE1=トラック 2
TTITLE2=トラック 3
TTITLE3=トラック 4
TTITLE4=トラック 5
TTITLE5=トラック 6
TTITLE6=トラック 7
TTITLE7=トラック 8
TTITLE8=トラック 9
TTITLE9=トラック 10
TTITLE10=トラック 11
TTITLE11=トラック 12
TTITLE12=トラック 13
TTITLE13=トラック 14
TTITLE14=トラック 15
TTITLE15=トラック 16
TTITLE16=トラック 17
TTITLE17=トラック 18
EXTD=
EXTT0=
EXTT1=
EXTT2=
EXTT3=
EXTT4=
EXTT5=
EXTT6=
EXTT7=
EXTT8=
EXTT9=
EXTT10=
EXTT11=
EXTT12=
EXTT13=
EXTT14=
EXTT15=
EXTT16=
EXTT17=
PLAYORDER=
